<svg id="Слой_2" data-name="Слой 2" xmlns="http://www.w3.org/2000/svg" xmlns:xlink="http://www.w3.org/1999/xlink" viewBox="0 0 800 600"><defs><style>.cls-1{fill:url(#Безымянный_градиент_25);}.cls-2{fill:url(#Безымянный_градиент_25-2);}.cls-3{fill:url(#Безымянный_градиент_25-3);}</style><linearGradient id="Безымянный_градиент_25" x1="60.62" y1="296.44" x2="673.36" y2="296.44" gradientUnits="userSpaceOnUse"><stop offset="0" stop-color="#01add8"/><stop offset="1" stop-color="#00a29c"/></linearGradient><linearGradient id="Безымянный_градиент_25-2" x1="248.13" y1="186.03" x2="739.38" y2="186.03" xlink:href="#Безымянный_градиент_25"/><linearGradient id="Безымянный_градиент_25-3" x1="361.07" y1="410.41" x2="645.3" y2="410.41" xlink:href="#Безымянный_градиент_25"/></defs><title>лого градиент</title><path class="cls-1" d="M673.17,277.45c-5.14,13.41-10.46,27-14.2,40.72-.52,1.9-3,3.23-5,3.23H65a4.47,4.47,0,0,1-3.47-7.21l26.52-39.44a6.9,6.9,0,0,1,4.73-2.21l574.59-1.06C670.48,271.47,674.27,274.57,673.17,277.45Z"/><path class="cls-2" d="M739.13,164.73a510.86,510.86,0,0,0-30,43.42,4.34,4.34,0,0,1-3.71,2.07H252.64c-3.74,0-5.84-5-3.56-8.41l24.47-36.95c.86-1.27,4.42-3,5.81-3H736.82C738.31,161.85,740,163.55,739.13,164.73Z"/><path class="cls-3" d="M645.28,387.49q-2.22,21.42-2.4,43.35a4.38,4.38,0,0,1-4.32,4.35l-273.06,3a4.37,4.37,0,0,1-4.06-6.11L381,386.53a6.58,6.58,0,0,1,5-3.37l255-.51A4.37,4.37,0,0,1,645.28,387.49Z"/></svg>